<svg width="24" height="24" viewBox="0 0 24 24" fill="none" xmlns="http://www.w3.org/2000/svg">
<path d="M10 20.5V21.15H10.65V20.5H10ZM10 14.5V13.85H9.35V14.5H10ZM14 14.5H14.65V13.85H14V14.5ZM14 20.5H13.35V21.15H14V20.5ZM19 20.5V21.15H19.65V20.5H19ZM19 12.5V11.85H18.35V12.5H19ZM22 12.5V13.15C22.2691 13.15 22.5104 12.9841 22.6069 12.7329C22.7033 12.4816 22.6349 12.1969 22.4348 12.0169L22 12.5ZM12 3.5L12.4348 3.01686L12 2.62551L11.5652 3.01686L12 3.5ZM2 12.5L1.56517 12.0169C1.36513 12.1969 1.29673 12.4816 1.39315 12.7329C1.48957 12.9841 1.73087 13.15 2 13.15L2 12.5ZM5 12.5H5.65V11.85H5V12.5ZM5 20.5H4.35V21.15H5V20.5ZM10.65 20.5V14.5H9.35V20.5H10.65ZM10 15.15H14V13.85H10V15.15ZM13.35 14.5V20.5H14.65V14.5H13.35ZM14 21.15H19V19.85H14V21.15ZM19.65 20.5V12.5H18.35V20.5H19.65ZM19 13.15H22V11.85H19V13.15ZM22.4348 12.0169L12.4348 3.01686L11.5652 3.98314L21.5652 12.9831L22.4348 12.0169ZM11.5652 3.01686L1.56517 12.0169L2.43483 12.9831L12.4348 3.98314L11.5652 3.01686ZM2 13.15H5V11.85H2V13.15ZM4.35 12.5V20.5H5.65V12.5H4.35ZM5 21.15H10V19.85H5V21.15Z" fill="#37643B"/>
</svg>
