<svg width="52" height="52" viewBox="0 0 52 52" fill="none" xmlns="http://www.w3.org/2000/svg">
<path d="M2 14V8C2 6.4087 2.63214 4.88258 3.75736 3.75736C4.88258 2.63214 6.4087 2 8 2H14M2 38V44C2 45.5913 2.63214 47.1174 3.75736 48.2426C4.88258 49.3679 6.4087 50 8 50H14M38 2H44C45.5913 2 47.1174 2.63214 48.2426 3.75736C49.3679 4.88258 50 6.4087 50 8V14M38 50H44C45.5913 50 47.1174 49.3679 48.2426 48.2426C49.3679 47.1174 50 45.5913 50 44V38M17 20H17.03M35 20H35.03M18.5 35.15C19.4776 34.1522 20.6445 33.3595 21.9324 32.8184C23.2202 32.2772 24.6031 31.9985 26 31.9985C27.3969 31.9985 28.7798 32.2772 30.0676 32.8184C31.3555 33.3595 32.5224 34.1522 33.5 35.15" stroke="black" stroke-width="2.5" stroke-linecap="round" stroke-linejoin="round"/>
</svg>
