<svg width="80" height="80" viewBox="0 0 80 80" fill="none" xmlns="http://www.w3.org/2000/svg">
<path d="M10 10L18.3333 10L20 16.6667M20 16.6667L26.6667 43.3333M20 16.6667H70L63.3333 43.3333H26.6667M26.6667 43.3333H25C22.2386 43.3333 20 45.5719 20 48.3333C20 51.0948 22.2386 53.3333 25 53.3333H63.3333M63.3333 66.6667C63.3333 68.5076 61.8409 70 60 70C58.159 70 56.6667 68.5076 56.6667 66.6667C56.6667 64.8257 58.159 63.3333 60 63.3333C61.8409 63.3333 63.3333 64.8257 63.3333 66.6667ZM30 66.6667C30 68.5076 28.5076 70 26.6667 70C24.8257 70 23.3333 68.5076 23.3333 66.6667C23.3333 64.8257 24.8257 63.3333 26.6667 63.3333C28.5076 63.3333 30 64.8257 30 66.6667Z" stroke="#A0A0A0" stroke-width="3.33333" stroke-linecap="round"/>
</svg>
