<svg width="52" height="51" viewBox="0 0 52 51" fill="none" xmlns="http://www.w3.org/2000/svg">
<path d="M2 13.5V7.5C2 5.9087 2.63214 4.38258 3.75736 3.25736C4.88258 2.13214 6.4087 1.5 8 1.5H14M2 37.5V43.5C2 45.0913 2.63214 46.6174 3.75736 47.7426C4.88258 48.8679 6.4087 49.5 8 49.5H14M38 1.5H44C45.5913 1.5 47.1174 2.13214 48.2426 3.25736C49.3679 4.38258 50 5.9087 50 7.5V13.5M38 49.5H44C45.5913 49.5 47.1174 48.8679 48.2426 47.7426C49.3679 46.6174 50 45.0913 50 43.5V37.5M17 19.5H17.03M35 19.5H35.03M18.5 34.65C19.4776 33.6522 20.6445 32.8595 21.9324 32.3184C23.2202 31.7772 24.6031 31.4985 26 31.4985C27.3969 31.4985 28.7798 31.7772 30.0676 32.3184C31.3555 32.8595 32.5224 33.6522 33.5 34.65" stroke="#313131" stroke-width="2.5" stroke-linecap="round" stroke-linejoin="round"/>
</svg>
