<svg width="25" height="24" viewBox="0 0 25 24" fill="none" xmlns="http://www.w3.org/2000/svg">
<path d="M16.35 2H8.28001C6.70316 2.00185 5.19144 2.62914 4.07654 3.74424C2.96163 4.85933 2.3346 6.37115 2.33301 7.948L2.33301 16.018C2.33486 17.5948 2.96215 19.1066 4.07724 20.2215C5.19234 21.3364 6.70416 21.9634 8.28101 21.965H16.351C17.9279 21.9631 19.4396 21.3359 20.5545 20.2208C21.6694 19.1057 22.2964 17.5938 22.298 16.017V7.947C22.2962 6.37015 21.6689 4.85844 20.5538 3.74353C19.4387 2.62862 17.9269 2.00159 16.35 2V2ZM20.29 16.017C20.29 16.5344 20.1881 17.0468 19.9901 17.5248C19.7921 18.0028 19.5019 18.4371 19.136 18.803C18.7701 19.1689 18.3358 19.4591 17.8578 19.6571C17.3798 19.8551 16.8674 19.957 16.35 19.957H8.28001C7.23523 19.9567 6.23333 19.5415 5.49465 18.8026C4.75598 18.0638 4.34101 17.0618 4.34101 16.017V7.947C4.34127 6.90222 4.7565 5.90032 5.49536 5.16165C6.23423 4.42297 7.23623 4.008 8.28101 4.008H16.351C17.3958 4.00827 18.3977 4.42349 19.1364 5.16235C19.875 5.90122 20.29 6.90322 20.29 7.948V16.018V16.017Z" fill="black"/>
<path d="M12.3153 6.819C10.9467 6.82112 9.63485 7.36579 8.66722 8.33361C7.69959 9.30143 7.15517 10.6134 7.15332 11.982C7.15491 13.3509 7.69934 14.6633 8.66722 15.6314C9.6351 16.5995 10.9474 17.1441 12.3163 17.146C13.6854 17.1444 14.998 16.5998 15.9661 15.6317C16.9342 14.6637 17.4787 13.3511 17.4803 11.982C17.4782 10.6131 16.9333 9.30088 15.965 8.33319C14.9968 7.3655 13.6842 6.82132 12.3153 6.82V6.819ZM12.3153 15.138C11.4786 15.138 10.6761 14.8056 10.0844 14.2139C9.49272 13.6222 9.16032 12.8198 9.16032 11.983C9.16032 11.1462 9.49272 10.3438 10.0844 9.75208C10.6761 9.1604 11.4786 8.828 12.3153 8.828C13.1521 8.828 13.9546 9.1604 14.5462 9.75208C15.1379 10.3438 15.4703 11.1462 15.4703 11.983C15.4703 12.8198 15.1379 13.6222 14.5462 14.2139C13.9546 14.8056 13.1521 15.138 12.3153 15.138Z" fill="black"/>
<path d="M17.489 8.095C18.1721 8.095 18.726 7.54118 18.726 6.858C18.726 6.17483 18.1721 5.621 17.489 5.621C16.8058 5.621 16.252 6.17483 16.252 6.858C16.252 7.54118 16.8058 8.095 17.489 8.095Z" fill="black"/>
</svg>
