<svg width="25" height="24" viewBox="0 0 25 24" fill="none" xmlns="http://www.w3.org/2000/svg">
<path d="M22.292 13.719V21.098H18.014V14.213C18.014 12.483 17.395 11.303 15.847 11.303C14.665 11.303 13.961 12.099 13.652 12.868C13.539 13.143 13.51 13.526 13.51 13.911V21.098H9.23001C9.23001 21.098 9.28801 9.438 9.23001 8.229H13.51V10.053L13.482 10.095H13.51V10.053C14.078 9.178 15.093 7.927 17.366 7.927C20.181 7.927 22.292 9.767 22.292 13.719ZM4.75401 2.026C3.29101 2.026 2.33301 2.986 2.33301 4.249C2.33301 5.484 3.26301 6.473 4.69801 6.473H4.72601C6.21901 6.473 7.14601 5.484 7.14601 4.249C7.12001 2.986 6.22001 2.026 4.75501 2.026H4.75401ZM2.58701 21.098H6.86501V8.229H2.58701V21.098Z" fill="black"/>
</svg>
