<svg width="22" height="22" viewBox="0 0 22 22" fill="none" xmlns="http://www.w3.org/2000/svg">
<path d="M11.0004 1.83337C9.39237 1.83337 8.05345 3.03486 7.82872 4.58337H4.6929C4.65387 4.57669 4.61433 4.5734 4.57473 4.57353C4.54052 4.57427 4.50641 4.57756 4.47268 4.58337H2.97952C2.88842 4.58209 2.79797 4.59892 2.71343 4.63289C2.62889 4.66686 2.55194 4.7173 2.48706 4.78126C2.42218 4.84523 2.37066 4.92146 2.3355 5.00551C2.30033 5.08956 2.28223 5.17976 2.28223 5.27087C2.28223 5.36198 2.30033 5.45219 2.3355 5.53624C2.37066 5.62029 2.42218 5.69652 2.48706 5.76048C2.55194 5.82445 2.62889 5.87489 2.71343 5.90886C2.79797 5.94283 2.88842 5.95966 2.97952 5.95837H3.95974L5.11363 17.8885C5.23788 19.1748 6.33075 20.1667 7.62283 20.1667H14.377C15.6691 20.1667 16.762 19.1749 16.8862 17.8885L18.041 5.95837H19.0212C19.1123 5.95966 19.2027 5.94283 19.2873 5.90886C19.3718 5.87489 19.4488 5.82445 19.5136 5.76048C19.5785 5.69652 19.63 5.62029 19.6652 5.53624C19.7004 5.45219 19.7185 5.36198 19.7185 5.27087C19.7185 5.17976 19.7004 5.08956 19.6652 5.00551C19.63 4.92146 19.5785 4.84523 19.5136 4.78126C19.4488 4.7173 19.3718 4.66686 19.2873 4.63289C19.2027 4.59892 19.1123 4.58209 19.0212 4.58337H17.5289C17.456 4.57154 17.3816 4.57154 17.3087 4.58337H14.172C13.9473 3.03486 12.6083 1.83337 11.0004 1.83337ZM11.0004 3.20837C11.8616 3.20837 12.5682 3.78961 12.7701 4.58337H9.23058C9.4325 3.78961 10.1391 3.20837 11.0004 3.20837ZM5.34011 5.95837H16.6597L15.5174 17.756C15.4601 18.3496 14.9732 18.7917 14.377 18.7917H7.62283C7.02749 18.7917 6.53962 18.3488 6.48237 17.756L5.34011 5.95837ZM9.38544 8.24019C9.20326 8.24304 9.02966 8.31808 8.90277 8.44883C8.77588 8.57959 8.70607 8.75536 8.70869 8.93754V15.8125C8.7074 15.9036 8.72423 15.9941 8.7582 16.0786C8.79217 16.1632 8.84261 16.2401 8.90658 16.305C8.97054 16.3699 9.04677 16.4214 9.13082 16.4566C9.21487 16.4917 9.30507 16.5098 9.39619 16.5098C9.4873 16.5098 9.5775 16.4917 9.66155 16.4566C9.7456 16.4214 9.82183 16.3699 9.8858 16.305C9.94976 16.2401 10.0002 16.1632 10.0342 16.0786C10.0681 15.9941 10.085 15.9036 10.0837 15.8125V8.93754C10.085 8.84552 10.0678 8.75418 10.0332 8.66891C9.99857 8.58365 9.94717 8.50621 9.88206 8.44118C9.81694 8.37615 9.73944 8.32485 9.65413 8.29033C9.56883 8.2558 9.47746 8.23876 9.38544 8.24019ZM12.5938 8.24019C12.4116 8.24304 12.238 8.31808 12.1111 8.44883C11.9842 8.57959 11.9144 8.75536 11.917 8.93754V15.8125C11.9157 15.9036 11.9326 15.9941 11.9665 16.0786C12.0005 16.1632 12.0509 16.2401 12.1149 16.305C12.1789 16.3699 12.2551 16.4214 12.3392 16.4566C12.4232 16.4917 12.5134 16.5098 12.6045 16.5098C12.6956 16.5098 12.7858 16.4917 12.8699 16.4566C12.9539 16.4214 13.0302 16.3699 13.0941 16.305C13.1581 16.2401 13.2085 16.1632 13.2425 16.0786C13.2765 15.9941 13.2933 15.9036 13.292 15.8125V8.93754C13.2933 8.84552 13.2762 8.75418 13.2415 8.66891C13.2069 8.58365 13.1555 8.50621 13.0904 8.44118C13.0253 8.37615 12.9478 8.32485 12.8625 8.29033C12.7772 8.2558 12.6858 8.23876 12.5938 8.24019Z" fill="#666666"/>
</svg>
