<svg width="25" height="24" viewBox="0 0 25 24" fill="none" xmlns="http://www.w3.org/2000/svg">
<path d="M22.333 5.907C21.5834 6.23438 20.7895 6.44904 19.977 6.544C20.8298 6.04323 21.4711 5.24911 21.781 4.31C20.973 4.78033 20.0917 5.1116 19.174 5.29C18.7876 4.88521 18.3227 4.56339 17.8078 4.34418C17.2928 4.12497 16.7386 4.01297 16.179 4.015C13.913 4.015 12.076 5.825 12.076 8.055C12.076 8.371 12.112 8.68 12.182 8.975C10.5566 8.89769 8.96512 8.48241 7.50918 7.75564C6.05323 7.02887 4.76477 6.00658 3.72601 4.754C3.36183 5.3684 3.17042 6.06978 3.17201 6.784C3.1727 7.45197 3.33984 8.10923 3.6583 8.69639C3.97676 9.28356 4.43651 9.78211 4.99601 10.147C4.34549 10.126 3.70903 9.95233 3.13801 9.64V9.69C3.13801 11.648 4.55301 13.281 6.42801 13.653C6.07562 13.7465 5.71259 13.7939 5.34801 13.794C5.08301 13.794 4.82601 13.769 4.57501 13.719C4.84309 14.5269 5.35611 15.2313 6.04283 15.7343C6.72954 16.2374 7.55585 16.5141 8.40701 16.526C6.94708 17.6505 5.15483 18.258 3.31201 18.253C2.98001 18.253 2.65401 18.233 2.33301 18.197C4.21426 19.3877 6.3956 20.0183 8.62201 20.015C16.169 20.015 20.295 13.858 20.295 8.519L20.281 7.996C21.0859 7.42967 21.7812 6.72185 22.333 5.907Z" fill="black"/>
</svg>
