<svg width="11" height="11" viewBox="0 0 11 11" fill="none" xmlns="http://www.w3.org/2000/svg">
<path d="M5.49992 2.79165C5.35626 2.79165 5.21849 2.84871 5.11691 2.9503C5.01532 3.05188 4.95825 3.18965 4.95825 3.33331V5.49998C4.95825 5.64364 5.01532 5.78141 5.11691 5.883C5.21849 5.98458 5.35626 6.04165 5.49992 6.04165C5.64358 6.04165 5.78136 5.98458 5.88294 5.883C5.98452 5.78141 6.04159 5.64364 6.04159 5.49998V3.33331C6.04159 3.18965 5.98452 3.05188 5.88294 2.9503C5.78136 2.84871 5.64358 2.79165 5.49992 2.79165ZM5.99825 7.46081C5.9864 7.4263 5.97 7.39351 5.9495 7.36331L5.8845 7.28206C5.80833 7.2069 5.71161 7.15599 5.60653 7.13574C5.50145 7.1155 5.39273 7.12683 5.29409 7.16831C5.22845 7.19574 5.16799 7.23422 5.11534 7.28206C5.06514 7.33268 5.02542 7.3927 4.99846 7.4587C4.97151 7.52469 4.95784 7.59536 4.95825 7.66665C4.95911 7.73743 4.97383 7.80736 5.00159 7.87248C5.02592 7.9397 5.06473 8.00074 5.11528 8.05129C5.16582 8.10184 5.22687 8.14065 5.29409 8.16498C5.35893 8.19364 5.42903 8.20844 5.49992 8.20844C5.57081 8.20844 5.64092 8.19364 5.70575 8.16498C5.77297 8.14065 5.83402 8.10184 5.88457 8.05129C5.93511 8.00074 5.97393 7.9397 5.99825 7.87248C6.02601 7.80736 6.04073 7.73743 6.04159 7.66665C6.04425 7.63058 6.04425 7.59438 6.04159 7.55831C6.03226 7.52377 6.01764 7.49088 5.99825 7.46081V7.46081ZM5.49992 0.083313C4.42861 0.083313 3.38135 0.400995 2.49058 0.996186C1.59982 1.59138 0.905548 2.43734 0.495574 3.42711C0.0855989 4.41688 -0.0216692 5.50599 0.187334 6.55672C0.396337 7.60745 0.912225 8.57261 1.66976 9.33014C2.42729 10.0877 3.39245 10.6036 4.44318 10.8126C5.49391 11.0216 6.58302 10.9143 7.57279 10.5043C8.56256 10.0944 9.40852 9.40008 10.0037 8.50932C10.5989 7.61855 10.9166 6.5713 10.9166 5.49998C10.9166 4.78865 10.7765 4.08429 10.5043 3.42711C10.2321 2.76993 9.83307 2.1728 9.33008 1.66982C8.8271 1.16683 8.22997 0.767845 7.57279 0.495632C6.91561 0.223419 6.21125 0.083313 5.49992 0.083313V0.083313ZM5.49992 9.83331C4.64287 9.83331 3.80506 9.57917 3.09245 9.10301C2.37984 8.62686 1.82442 7.95009 1.49644 7.15827C1.16846 6.36646 1.08265 5.49517 1.24985 4.65459C1.41705 3.814 1.82976 3.04188 2.43579 2.43585C3.04182 1.82982 3.81395 1.41711 4.65453 1.24991C5.49511 1.08271 6.3664 1.16852 7.15822 1.4965C7.95003 1.82448 8.6268 2.3799 9.10296 3.09251C9.57911 3.80512 9.83325 4.64293 9.83325 5.49998C9.83325 6.64925 9.37671 7.75145 8.56405 8.56411C7.75139 9.37677 6.64919 9.83331 5.49992 9.83331V9.83331Z" fill="#E30000"/>
</svg>
