<svg width="25" height="24" viewBox="0 0 25 24" fill="none" xmlns="http://www.w3.org/2000/svg">
<path d="M18.145 5.017H6.47801C4.18801 5.017 2.33301 6.852 2.33301 9.116V14.884C2.33301 17.148 4.18901 18.984 6.47801 18.984H18.145C20.435 18.984 22.29 17.148 22.29 14.884V9.116C22.29 6.852 20.434 5.016 18.145 5.016V5.017ZM15.342 12.28L9.88501 14.855C9.85172 14.871 9.81493 14.8784 9.77804 14.8764C9.74115 14.8743 9.70538 14.863 9.67404 14.8435C9.6427 14.8239 9.61682 14.7967 9.59881 14.7645C9.58079 14.7322 9.57123 14.6959 9.57101 14.659V9.35C9.57167 9.31287 9.58173 9.27652 9.60023 9.24432C9.61873 9.21213 9.64508 9.18514 9.67683 9.16588C9.70857 9.14661 9.74468 9.13569 9.78178 9.13414C9.81888 9.13259 9.85577 9.14045 9.88901 9.157L15.347 11.892C15.3834 11.9101 15.4139 11.9381 15.435 11.9728C15.4562 12.0075 15.4671 12.0474 15.4666 12.0881C15.4661 12.1287 15.4541 12.1683 15.4321 12.2025C15.41 12.2366 15.3788 12.2638 15.342 12.281V12.28Z" fill="black"/>
</svg>
