<svg width="24" height="14" viewBox="0 0 24 14" fill="none" xmlns="http://www.w3.org/2000/svg">
<path d="M22.77 11.9157L17.76 8.54825L12.75 5.18075V5.09449C13.2019 4.95567 13.6063 4.69415 13.9184 4.33905C14.2304 3.98396 14.4377 3.54923 14.5173 3.08327C14.5969 2.61731 14.5456 2.13841 14.3691 1.69988C14.1926 1.26136 13.8978 0.880426 13.5177 0.599502C13.1375 0.318577 12.6868 0.148686 12.2158 0.108743C11.7448 0.0688011 11.2719 0.160376 10.8499 0.373272C10.4278 0.586167 10.0731 0.912028 9.82531 1.31457C9.57749 1.71711 9.44627 2.18054 9.44625 2.65325C9.44625 2.85216 9.52527 3.04292 9.66592 3.18358C9.80657 3.32423 9.99734 3.40325 10.1962 3.40325C10.3952 3.40325 10.5859 3.32423 10.7266 3.18358C10.8672 3.04292 10.9462 2.85216 10.9462 2.65325C10.9462 2.44483 11.0081 2.2411 11.1238 2.06781C11.2396 1.89453 11.4042 1.75946 11.5967 1.67971C11.7893 1.59995 12.0012 1.57908 12.2056 1.61974C12.41 1.6604 12.5977 1.76076 12.7451 1.90813C12.8925 2.0555 12.9928 2.24326 13.0335 2.44767C13.0742 2.65208 13.0533 2.86395 12.9735 3.0565C12.8938 3.24905 12.7587 3.41362 12.5854 3.52941C12.4121 3.64519 12.2084 3.707 12 3.707C11.8011 3.707 11.6103 3.78601 11.4697 3.92667C11.329 4.06732 11.25 4.25808 11.25 4.45699V5.582V5.64574C11.2463 5.82068 11.3039 5.9914 11.4128 6.12837C11.5216 6.26533 11.675 6.35992 11.8463 6.39575L20.7975 12.3957H3.2025L10.6125 7.41575C10.7739 7.3033 10.8846 7.13195 10.9209 6.93864C10.9571 6.74532 10.916 6.5455 10.8063 6.38223C10.6966 6.21895 10.5272 6.10529 10.3345 6.06574C10.1419 6.02618 9.94138 6.06389 9.77625 6.17075L1.23 11.9157C1.03706 12.0452 0.89082 12.2332 0.812851 12.452C0.734881 12.6709 0.729308 12.909 0.796955 13.1313C0.864601 13.3536 1.00189 13.5482 1.18856 13.6865C1.37523 13.8248 1.60142 13.8995 1.83375 13.8995H22.1663C22.3986 13.8995 22.6248 13.8248 22.8114 13.6865C22.9981 13.5482 23.1354 13.3536 23.203 13.1313C23.2707 12.909 23.2651 12.6709 23.1871 12.452C23.1092 12.2332 22.9629 12.0452 22.77 11.9157Z" fill="black"/>
</svg>
