<svg width="22" height="16" viewBox="0 0 22 16" fill="none" xmlns="http://www.w3.org/2000/svg">
<path d="M21.6953 14.4635L15.1749 1.17472C15.1635 1.15285 15.15 1.13222 15.1345 1.1132V1.09844C15.1147 1.07685 15.0923 1.05783 15.068 1.04184H15.0514C15.031 1.02978 15.0095 1.01989 14.9872 1.01231H14.9658C14.9379 1.0046 14.9092 1.00047 14.8803 1H7.87749C7.8116 0.999853 7.74696 1.01863 7.69074 1.05426C7.63454 1.0899 7.58897 1.14096 7.55907 1.20179L1.02681 14.4906C1.00489 14.5457 0.996214 14.6056 1.00151 14.665C1.00681 14.7244 1.02592 14.7816 1.05722 14.8316C1.08852 14.8817 1.13107 14.9232 1.18123 14.9525C1.23139 14.9818 1.28766 14.9981 1.34523 15H21.3793C21.4403 15.0001 21.5003 14.984 21.5536 14.9532C21.6069 14.9224 21.6517 14.878 21.6836 14.8241C21.7156 14.7703 21.7337 14.7089 21.7361 14.6457C21.7386 14.5826 21.7254 14.5199 21.6977 14.4635H21.6953ZM8.84462 14.2617L14.5025 2.86782V14.2617H8.84462ZM15.2153 9.58604L17.4466 14.2617H15.2153V9.58604ZM8.08662 1.7112H14.2648L8.04148 14.2617H1.92502L8.08662 1.7112ZM18.2331 14.2617L15.2153 7.92248V2.88258L20.7971 14.2617H18.2331Z" fill="black" stroke="black" stroke-width="0.5"/>
</svg>
