<svg width="22" height="24" viewBox="0 0 22 24" fill="none" xmlns="http://www.w3.org/2000/svg">
<path d="M16.25 21.75H5.75C4.925 21.75 4.25 21.075 4.25 20.25V10.5C4.25 7.575 6.575 5.25 9.5 5.25H12.5C15.425 5.25 17.75 7.575 17.75 10.5V20.25C17.75 21.075 17.075 21.75 16.25 21.75Z" stroke="black" stroke-miterlimit="10" stroke-linecap="round" stroke-linejoin="round"/>
<path d="M4.25 13.5H17.75" stroke="black" stroke-miterlimit="10" stroke-linecap="round" stroke-linejoin="round"/>
<path d="M12.5 19.5H9.5C8.675 19.5 8 18.825 8 18V16.5H14V18C14 18.825 13.325 19.5 12.5 19.5Z" stroke="black" stroke-miterlimit="10" stroke-linecap="round" stroke-linejoin="round"/>
<path d="M8 6V14.25" stroke="black" stroke-miterlimit="10" stroke-linecap="round" stroke-linejoin="round"/>
<path d="M14 6V14.25" stroke="black" stroke-miterlimit="10" stroke-linecap="round" stroke-linejoin="round"/>
<path d="M13.25 5.25H8.75V3.75C8.75 2.925 9.425 2.25 10.25 2.25H11.75C12.575 2.25 13.25 2.925 13.25 3.75V5.25Z" stroke="black" stroke-miterlimit="10" stroke-linecap="round" stroke-linejoin="round"/>
<path d="M18.5 20.25H17.75V14.25H18.5C19.325 14.25 20 14.925 20 15.75V18.75C20 19.575 19.325 20.25 18.5 20.25Z" stroke="black" stroke-miterlimit="10" stroke-linecap="round" stroke-linejoin="round"/>
<path d="M3.5 20.25H4.25V14.25H3.5C2.675 14.25 2 14.925 2 15.75V18.75C2 19.575 2.675 20.25 3.5 20.25Z" stroke="black" stroke-miterlimit="10" stroke-linecap="round" stroke-linejoin="round"/>
</svg>
