<svg width="24" height="24" viewBox="0 0 24 24" fill="none" xmlns="http://www.w3.org/2000/svg">
<path fill-rule="evenodd" clip-rule="evenodd" d="M5.16414 10.5493C6.85241 10.5493 8.44138 11.3639 9.36828 12.7652L9.83172 8.39857C8.87172 8.69184 7.84552 8.23563 7.44828 7.3558L4.46897 10.6145C4.70069 10.5493 4.93241 10.5493 5.16414 10.5493ZM10.6262 12.2112C11.0566 11.9831 11.5531 11.8853 12.0166 11.8853C12.5131 11.8853 12.9766 11.9831 13.44 12.2112L13.3407 11.2662C12.9434 10.9729 12.48 10.8426 12.0166 10.8426C11.5531 10.8426 11.0897 10.9729 10.7255 11.2662L10.6262 12.2112ZM13.5724 13.3191L13.4731 13.4169C13.0759 13.0584 12.5462 12.8629 12.0166 12.8629C11.4869 12.8629 10.9903 13.0584 10.56 13.4169L10.4607 13.3191L10.1628 15.9912C9.93103 18.5982 7.74621 20.5859 5.09793 20.5859C2.28414 20.5859 0 18.3375 0 15.5676C0 14.199 0.529655 12.9933 1.42345 12.0808L7.54759 5.43319C7.91172 4.9118 8.54069 4.58594 9.20276 4.58594C10.2952 4.58594 11.189 5.46577 11.189 6.54113C11.189 6.67148 11.189 6.80182 11.1559 6.93217L10.8248 10.0931C11.189 9.93013 11.5862 9.86496 11.9834 9.86496C12.3807 9.86496 12.7779 9.93013 13.1752 10.0931L12.8441 6.93217C12.811 6.80182 12.811 6.67148 12.811 6.54113C12.811 5.46577 13.7048 4.58594 14.7972 4.58594C15.4593 4.58594 16.0552 4.9118 16.4524 5.43319L22.5766 12.0808C23.4703 12.9933 24 14.199 24 15.5676C24 18.3375 21.7159 20.5859 18.9021 20.5859C16.2538 20.5859 14.0359 18.5982 13.8372 15.9912L13.5724 13.3191ZM18.9352 10.5493C19.1669 10.5493 19.3986 10.5493 19.6303 10.5819L16.651 7.32321C16.2207 8.20305 15.1945 8.65926 14.2676 8.36598L14.731 12.7326C15.6579 11.3639 17.2469 10.5493 18.9352 10.5493ZM18.9021 12.5696C18.1076 12.5696 18.1407 13.7753 18.9352 13.7428C19.9283 13.7102 20.789 14.4597 20.8883 15.4373C20.9876 16.2193 22.1793 16.089 22.08 15.3069C21.9145 13.7102 20.5241 12.5371 18.9021 12.5696ZM14.0359 6.50854C14.069 6.96476 14.3007 7.29062 14.8303 7.29062C15.2607 7.29062 15.6248 6.93217 15.6248 6.50854C15.6248 6.08492 15.2607 5.72647 14.8303 5.72647C14.4 5.75905 14.069 6.08492 14.0359 6.50854ZM18.9352 11.7224C16.7834 11.7224 15.029 13.4495 15.029 15.5676C15.029 17.6857 16.7834 19.4128 18.9352 19.4128C21.0869 19.4128 22.8414 17.6857 22.8414 15.5676C22.8414 13.4495 21.0869 11.7224 18.9352 11.7224ZM5.19724 12.5696C5.99172 12.5696 5.95862 13.7753 5.16414 13.7428C4.17103 13.7102 3.31034 14.4597 3.21103 15.4373C3.11172 16.2193 1.92 16.089 2.01931 15.3069C2.18483 13.7102 3.57517 12.5371 5.19724 12.5696ZM10.0634 6.50854C10.0634 6.08492 9.69931 5.75905 9.26896 5.75905C8.83862 5.75905 8.47448 6.11751 8.47448 6.54113C8.47448 6.96476 8.83862 7.32321 9.26896 7.32321C9.76552 7.29062 9.99724 6.93217 10.0634 6.50854ZM5.16414 11.7224C7.31586 11.7224 9.07034 13.4495 9.07034 15.5676C9.07034 17.6857 7.31586 19.4128 5.16414 19.4128C3.01241 19.4128 1.25793 17.6857 1.25793 15.5676C1.25793 13.4495 3.01241 11.7224 5.16414 11.7224Z" fill="black"/>
</svg>
