<svg width="24" height="24" viewBox="0 0 24 24" fill="none" xmlns="http://www.w3.org/2000/svg">
<g clip-path="url(#clip0_4271_23525)">
<path d="M15.6172 7.34861C16.107 7.34861 16.5858 7.2046 16.993 6.93478C17.4003 6.66496 17.7177 6.28145 17.9051 5.83276C18.0926 5.38406 18.1416 4.89033 18.0461 4.414C17.9505 3.93767 17.7147 3.50013 17.3683 3.15672C17.022 2.8133 16.5807 2.57943 16.1003 2.48468C15.6199 2.38994 15.122 2.43856 14.6695 2.62442C14.217 2.81027 13.8302 3.12501 13.5581 3.52882C13.286 3.93264 13.1407 4.40739 13.1407 4.89306C13.1407 5.54431 13.4017 6.16889 13.8661 6.6294C14.3305 7.0899 14.9604 7.34861 15.6172 7.34861ZM15.6172 3.57083C15.8809 3.57083 16.1388 3.64838 16.358 3.79367C16.5773 3.93896 16.7482 4.14546 16.8492 4.38706C16.9501 4.62867 16.9765 4.89452 16.9251 5.15101C16.8736 5.4075 16.7466 5.64309 16.5601 5.82801C16.3736 6.01292 16.136 6.13885 15.8773 6.18987C15.6187 6.24089 15.3506 6.21471 15.1069 6.11463C14.8632 6.01455 14.655 5.84508 14.5085 5.62764C14.3619 5.41021 14.2837 5.15457 14.2837 4.89306C14.2837 4.54238 14.4242 4.20607 14.6743 3.9581C14.9244 3.71014 15.2635 3.57083 15.6172 3.57083ZM24.1095 18.5818L18.9128 9.88539C18.7958 9.68793 18.6288 9.52424 18.4283 9.41058C18.2278 9.29693 18.0008 9.23726 17.7698 9.2375C17.5388 9.23707 17.3117 9.29666 17.1112 9.41033C16.9107 9.52401 16.7437 9.6878 16.6268 9.88539L13.9713 14.329L9.53654 6.86789C9.41877 6.6695 9.2508 6.50503 9.04924 6.39077C8.84769 6.2765 8.61954 6.21639 8.38737 6.21639C8.1552 6.21639 7.92705 6.2765 7.7255 6.39077C7.52395 6.50503 7.35598 6.6695 7.2382 6.86789L0.266021 18.5875C0.215967 18.6735 0.189563 18.771 0.189453 18.8702C0.189344 18.9695 0.215532 19.067 0.265396 19.1531C0.31526 19.2392 0.387051 19.3107 0.473582 19.3607C0.560114 19.4106 0.658349 19.4371 0.758455 19.4375H23.6181C23.7189 19.4375 23.818 19.411 23.9052 19.3607C23.9924 19.3104 24.0646 19.2382 24.1146 19.1513C24.1645 19.0644 24.1903 18.9659 24.1894 18.8659C24.1885 18.7659 24.161 18.6679 24.1095 18.5818ZM8.21354 7.44306C8.23029 7.41443 8.25433 7.39067 8.28324 7.37416C8.31216 7.35764 8.34495 7.34895 8.37832 7.34895C8.4117 7.34895 8.44448 7.35764 8.4734 7.37416C8.50232 7.39067 8.52636 7.41443 8.5431 7.44306L10.9567 11.5042H5.79995L8.21354 7.44306ZM1.75856 18.3042L5.12655 12.6375H11.6311L13.4693 15.7324L14.9933 18.3013L1.75856 18.3042ZM16.3249 18.3042L14.6247 15.4434L17.6012 10.4653C17.6178 10.4367 17.6417 10.413 17.6705 10.3964C17.6992 10.3799 17.7318 10.371 17.7651 10.3708C17.7984 10.3703 17.8313 10.3789 17.8602 10.3955C17.889 10.4121 17.9128 10.4363 17.9289 10.4653L22.6151 18.3042H16.3249Z" fill="black"/>
</g>
<defs>
<clipPath id="clip0_4271_23525">
<rect width="24" height="24" fill="white"/>
</clipPath>
</defs>
</svg>
